<svg width="512" height="512" viewBox="0 0 512 512" fill="none" xmlns="http://www.w3.org/2000/svg">
  <!-- Background -->
  <rect width="512" height="512" rx="128" fill="#22c55e"/>
  
  <!-- Watermelon slice -->
  <g transform="translate(256, 256)">
    <!-- Red flesh -->
    <circle cx="0" cy="0" r="140" fill="#ef4444"/>
    
    <!-- White rind -->
    <path d="M -140 0 A 140 140 0 0 1 140 0 L 120 0 A 120 120 0 0 0 -120 0 Z" fill="#ffffff"/>
    
    <!-- Green skin -->
    <path d="M -140 0 A 140 140 0 0 1 140 0 L 140 20 A 140 140 0 0 1 -140 20 Z" fill="#16a34a"/>
    
    <!-- Seeds -->
    <ellipse cx="-60" cy="-40" rx="8" ry="12" fill="#1f2937" transform="rotate(-20 -60 -40)"/>
    <ellipse cx="-20" cy="-60" rx="8" ry="12" fill="#1f2937" transform="rotate(10 -20 -60)"/>
    <ellipse cx="30" cy="-50" rx="8" ry="12" fill="#1f2937" transform="rotate(-15 30 -50)"/>
    <ellipse cx="70" cy="-30" rx="8" ry="12" fill="#1f2937" transform="rotate(20 70 -30)"/>
    <ellipse cx="-40" cy="20" rx="8" ry="12" fill="#1f2937" transform="rotate(15 -40 20)"/>
    <ellipse cx="10" cy="10" rx="8" ry="12" fill="#1f2937" transform="rotate(-10 10 10)"/>
    <ellipse cx="50" cy="30" rx="8" ry="12" fill="#1f2937" transform="rotate(25 50 30)"/>
  </g>
  
  <!-- AI sparkle effect -->
  <g opacity="0.9">
    <circle cx="380" cy="130" r="4" fill="#fbbf24"/>
    <circle cx="390" cy="140" r="3" fill="#fbbf24"/>
    <circle cx="370" cy="145" r="3" fill="#fbbf24"/>
    <path d="M 380 120 L 382 128 L 390 130 L 382 132 L 380 140 L 378 132 L 370 130 L 378 128 Z" fill="#fbbf24"/>
  </g>
</svg>
